<svg xmlns="http://www.w3.org/2000/svg" width="144.599" height="161.81" viewBox="-64.255 -98.831 144.599 161.81"><path fill="#EE4428" d="M4.615-96.865A114.652 114.652 0 0 0-16.62-98.83c-7.3 0-14.387.677-21.21 1.965 7.43 1.377 14.56 3.544 21.21 6.258-21.388 8.695-38.296 23.847-47.273 42.312C-50.096-59.697-30.923-66.8-9.67-66.8c36.478 0 66.857 20.83 74.484 48.6C57.188 9.656 26.81 30.43-9.67 30.43c-21.41 0-40.755-7.223-54.584-18.84 8.897 18.904 25.94 34.255 47.636 43.1-6.652 2.71-13.782 4.89-21.21 6.258a110.58 110.58 0 0 0 21.21 2.033c7.324 0 14.37-.7 21.234-2.03 32.572-6.05 58.89-25.813 69.957-51.643 3.69-8.535 5.77-17.69 5.77-27.263 0-9.528-2.08-18.75-5.77-27.222C63.505-71.033 37.188-90.796 4.615-96.864z"/></svg>