<svg id="Layer_1" data-name="Layer 1" xmlns="http://www.w3.org/2000/svg" viewBox="0 0 478.35 154.43"><defs><style>.cls-1{fill:#fff}</style></defs><title>logo_full_white</title><path class="cls-1" d="M19.97 72.83c0-11.79 6.7-22.75 17.5-22.75 9.65 0 13.91 6.71 13.91 16.2v50.24h20v-43.7c0-11.79 6.71-22.75 17.83-22.75 9.34 0 13.59 6.71 13.59 16.2v50.24h20V58.26c0-17.83-11-26.5-29-26.5-11.13 0-19.47 4.41-25.53 12.43-4.09-9.17-14.56-12.43-24.38-12.43-10.64 0-17.84 3.92-23.88 10.14v-8.18h-20v82.8h20v-43.7zM277.54 99.2a83.53 83.53 0 0 1-8.84 1c-7.69 0-9-3.59-9-10.15V48.12h17.84v-14.4h-17.83V4.42h-20v29.3h-12.1v14.4h12.1v49.42c0 12.6 5.57 20 21.93 20a73.42 73.42 0 0 0 15.87-2V99.2zM288.19 0h19.96v20.3h-19.96zM288.19 33.72h19.96v82.8h-19.96zM356.09 90.98h-.32l-16.52-57.26h-21.11l27.32 82.8h20.94l27.33-82.8h-21.1l-16.54 57.26zM437.58 100.2c-10.8 0-21.1-8-21.43-20.29h61.21c0-29.63-12.12-48.11-39.78-48.11-26.83 0-42.37 18.65-42.37 43.36s15.55 43.35 42.37 43.35c22.59 0 34.54-10.78 40.76-20.29l-16.85-9.82c-1.97 2.8-8.2 11.8-23.91 11.8zm0-52c13.43 0 18.83 11.94 18.83 16.36h-40.26c2.13-8.92 9.82-16.44 21.43-16.44zM176.51 21.02a73.74 73.74 0 0 0-27.09 0 69.43 69.43 0 0 1 13.54 4c-13.65 5.55-24.44 15.22-30.17 27 8.8-7.28 21.09-11.82 34.61-11.82 23.28 0 42.67 13.29 47.54 31-4.87 17.78-24.26 31-47.54 31-13.67 0-26-4.61-34.84-12 5.68 12.06 16.56 21.86 30.41 27.51a69.29 69.29 0 0 1-13.54 4 71.39 71.39 0 0 0 27.09 0c20.79-3.86 37.59-16.47 44.65-33a42.88 42.88 0 0 0 0-34.78c-7.07-16.42-23.87-29.04-44.66-32.91zM243.32 138.82h2.48l6.71 15.38h-2.83l-1.55-3.68h-7.25l-1.52 3.68h-2.74zm3.83 9.3l-2.63-6.1-2.61 6.1h5.25zM262.72 146.6a7.71 7.71 0 0 1 7.86-7.88 7.94 7.94 0 0 1 6 2.37l-1.72 2a6.07 6.07 0 0 0-4.27-1.89 5.12 5.12 0 0 0-5 5.38 5.15 5.15 0 0 0 5 5.42 6 6 0 0 0 4.38-2l1.72 1.74a7.87 7.87 0 0 1-6.18 2.7 7.66 7.66 0 0 1-7.79-7.84zM280.33 138.93h6.79a6.14 6.14 0 0 1 4.4 1.52 4.61 4.61 0 0 1 1.26 3.29 4.57 4.57 0 0 1-3.64 4.62l4.12 5.77h-3.16l-3.75-5.31H283v5.38h-2.68v-15.27zm6.6 7.56c1.92 0 3.13-1 3.13-2.55 0-1.63-1.18-2.53-3.16-2.53H283v5.12h3.88zM296.93 138.93h11.3v2.4h-8.62v4h7.64v2.39h-7.64v4.09h8.73v2.39h-11.41v-15.27zM317.79 138.82h2.48l6.71 15.38h-2.83l-1.55-3.68h-7.21l-1.56 3.68h-2.75zm3.83 9.3l-2.63-6.1-2.61 6.1h5.25zM331.7 141.41h-4.82v-2.48h12.37v2.48h-4.83v12.79h-2.7v-12.79zM343.08 138.93h2.68v15.27h-2.68v-15.27zM349.39 138.93h3l4.59 11.71 4.57-11.71h2.9l-6.34 15.35h-2.35zM367.88 138.93h11.3v2.4h-8.62v4h7.64v2.39h-7.64v4.09h8.73v2.39h-11.41v-15.27zM389.73 151.95l1.61-1.92a7 7 0 0 0 4.81 2c1.66 0 2.7-.76 2.7-1.92 0-1.09-.61-1.68-3.44-2.33-3.24-.78-5.07-1.74-5.07-4.55 0-2.61 2.18-4.42 5.2-4.42a8.45 8.45 0 0 1 5.53 1.92l-1.44 2a6.93 6.93 0 0 0-4.14-1.57c-1.57 0-2.48.81-2.48 1.81 0 1.18.7 1.7 3.61 2.39 3.22.78 4.9 1.94 4.9 4.46 0 2.85-2.24 4.55-5.44 4.55a9.39 9.39 0 0 1-6.35-2.42zM408.97 141.41h-4.83v-2.48h12.37v2.48h-4.83v12.79h-2.7v-12.79zM419.96 147.71v-8.78h2.68v8.67c0 2.83 1.46 4.35 3.85 4.35s3.83-1.44 3.83-4.25v-8.78H433v8.64c0 4.55-2.57 6.84-6.55 6.84s-6.49-2.27-6.49-6.69zM437.55 138.93h5.68c4.79 0 8.1 3.29 8.1 7.58s-3.31 7.62-8.1 7.62h-5.68v-15.2zm5.68 12.8a5 5 0 0 0 5.29-5.14 5 5 0 0 0-5.29-5.18h-3v10.37h3zM455.16 138.93h2.72v15.27h-2.68v-15.27zM461.66 146.6a8 8 0 0 1 15.94 0 8 8 0 0 1-15.94 0zm13.13 0a5.22 5.22 0 0 0-5.18-5.42 5.15 5.15 0 0 0-5.14 5.38 5.22 5.22 0 0 0 5.18 5.42 5.15 5.15 0 0 0 5.14-5.38z"/></svg>