<svg id="Layer_1" xmlns="http://www.w3.org/2000/svg" viewBox="0 0 503.1 162.4"><style>.st0{fill:#FFF}</style><title>logo_full_white</title><path class="st0" d="M32.4 76.8C32.4 65 39.1 54 49.9 54c9.7 0 13.9 6.7 13.9 16.2v50.2h20V76.8C83.8 65 90.5 54 101.6 54c9.3 0 13.6 6.7 13.6 16.2v50.2h20V62.3c0-17.8-11-26.5-29-26.5-11.1 0-19.5 4.4-25.5 12.4-4.1-9.2-14.6-12.4-24.4-12.4-10.6 0-17.8 3.9-23.9 10.1v-8.2h-20v82.8h20V76.8zM289.9 103.2c-2.9.5-5.9.8-8.8 1-7.7 0-9-3.6-9-10.2V52.1h17.8V37.7h-17.8V8.4h-20v29.3H240v14.4h12.1v49.4c0 12.6 5.6 20 21.9 20 5.3-.1 10.7-.8 15.9-2v-16.3zM300.6 4h20v20.3h-20zM300.6 37.7h20v82.8h-20zM368.5 95h-.3l-16.6-57.3h-21.1l27.4 82.8h20.9l27.3-82.8H385zM450 104.2c-10.8 0-21.1-8-21.4-20.3h61.2c0-29.6-12.1-48.1-39.8-48.1-26.8 0-42.4 18.7-42.4 43.4s15.5 43.3 42.4 43.3c22.6 0 34.5-10.8 40.8-20.3l-16.9-9.8c-2 2.8-8.2 11.8-23.9 11.8zm0-52c13.4 0 18.8 11.9 18.8 16.4h-40.3c2.2-9 9.9-16.5 21.5-16.4zM188.9 25c-9-1.7-18.1-1.7-27.1 0 4.6.9 9.2 2.2 13.5 4-13.6 5.5-24.4 15.2-30.2 27 8.8-7.3 21.1-11.8 34.6-11.8 23.3 0 42.7 13.3 47.5 31-4.9 17.8-24.3 31-47.5 31-13.7 0-26-4.6-34.8-12 5.7 12.1 16.6 21.9 30.4 27.5-4.4 1.8-8.9 3.1-13.5 4 8.9 1.7 18.1 1.7 27.1 0 20.8-3.9 37.6-16.5 44.7-33 4.9-11.1 4.9-23.7 0-34.8-7.1-16.4-23.9-29-44.7-32.9zM255.7 142.8h2.5l6.7 15.4h-2.8l-1.5-3.7h-7.2l-1.5 3.7H249l6.7-15.4zm3.8 9.3l-2.6-6.1-2.6 6.1h5.2zM275.1 150.6c-.1-4.3 3.3-7.8 7.5-7.9h.3c2.2-.1 4.4.8 6 2.4l-1.7 2c-1.1-1.2-2.7-1.9-4.3-1.9-2.8.1-5.1 2.4-5 5.2v.1c-.2 2.8 2 5.3 4.9 5.4h.1c1.7 0 3.3-.8 4.4-2l1.7 1.7c-1.6 1.8-3.8 2.8-6.2 2.7-4.2.1-7.7-3.3-7.8-7.5.1 0 .1-.1.1-.2zM292.7 142.9h6.8c1.6-.1 3.2.5 4.4 1.5.8.9 1.3 2.1 1.3 3.3.1 2.2-1.5 4.2-3.6 4.6l4.1 5.8h-3.2l-3.8-5.3h-3.4v5.4h-2.7l.1-15.3zm6.6 7.6c1.9 0 3.1-1 3.1-2.5 0-1.6-1.2-2.5-3.2-2.5h-3.9v5.1l4-.1zM309.3 142.9h11.3v2.4H312v4h7.6v2.4H312v4.1h8.7v2.4h-11.4v-15.3zM330.2 142.8h2.5l6.7 15.4h-2.8l-1.5-3.7h-7.2l-1.6 3.7h-2.8l6.7-15.4zm3.8 9.3l-2.6-6.1-2.6 6.1h5.2zM344.1 145.4h-4.8v-2.5h12.4v2.5h-4.8v12.8h-2.7l-.1-12.8zM355.5 142.9h2.7v15.3h-2.7v-15.3zM361.8 142.9h3l4.6 11.7 4.6-11.7h2.9l-6.3 15.3h-2.4l-6.4-15.3zM380.3 142.9h11.3v2.4H383v4h7.6v2.4H383v4.1h8.7v2.4h-11.4v-15.3zM402.1 156l1.6-1.9c1.3 1.3 3 2 4.8 2 1.7 0 2.7-.8 2.7-1.9 0-1.1-.6-1.7-3.4-2.3-3.2-.8-5.1-1.7-5.1-4.5 0-2.6 2.2-4.4 5.2-4.4 2 0 4 .6 5.5 1.9l-1.4 2c-1.2-1-2.6-1.5-4.1-1.6-1.6 0-2.5.8-2.5 1.8 0 1.2.7 1.7 3.6 2.4 3.2.8 4.9 1.9 4.9 4.5 0 2.8-2.2 4.5-5.4 4.5-2.4-.1-4.6-1-6.4-2.5zM421.4 145.4h-4.8v-2.5H429v2.5h-4.8v12.8h-2.7l-.1-12.8zM432.4 151.7v-8.8h2.7v8.7c0 2.8 1.5 4.3 3.9 4.3s3.8-1.4 3.8-4.2v-8.8h2.7v8.6c0 4.5-2.6 6.8-6.5 6.8s-6.6-2.2-6.6-6.6zM449.9 142.9h5.7c4.8 0 8.1 3.3 8.1 7.6s-3.3 7.6-8.1 7.6h-5.7v-15.2zm5.7 12.8c2.8.2 5.1-1.9 5.3-4.7v-.4c.1-2.8-2-5.1-4.8-5.2h-3.5v10.4l3-.1zM467.6 142.9h2.7v15.3h-2.7v-15.3zM474.1 150.6c.4-4.4 4.3-7.7 8.7-7.3 3.9.3 6.9 3.4 7.3 7.3-.4 4.4-4.3 7.7-8.7 7.3-3.9-.4-7-3.4-7.3-7.3zm13.1 0c.1-2.9-2.1-5.3-5-5.4h-.2c-2.8 0-5.1 2.3-5.1 5.2v.2c-.1 2.9 2.1 5.3 5 5.4h.2c2.8 0 5.1-2.3 5.1-5.2v-.2z"/></svg>