<svg xmlns="http://www.w3.org/2000/svg" viewBox="0 0 612 792"><title>logo_full_white</title><path fill="#FFF" d="M39.4 390.6c0-14.4 8.2-27.7 21.3-27.7 11.8 0 16.9 8.2 16.9 19.7v61.1h24.3v-53c0-14.4 8.2-27.7 21.7-27.7 11.3 0 16.5 8.2 16.5 19.7v61.1h24.3V373c0-21.7-13.4-32.2-35.3-32.2-13.5 0-23.7 5.4-31 15.1-5-11.2-17.8-15.1-29.7-15.1-12.9 0-21.7 4.7-29.1 12.3v-10H15.1v100.7h24.3v-53.2zM352.7 422.8c-3.5.6-7.2 1-10.7 1.2-9.4 0-10.9-4.4-10.9-12.4v-51h21.7v-17.5H331v-35.6h-24.3v35.6H292v17.5h14.7v60.1c0 15.3 6.8 24.3 26.6 24.3 6.4-.1 13-1 19.3-2.4v-19.8h.1zM365.7 302.1H390v24.7h-24.3zM365.7 343.1H390v100.7h-24.3zM448.3 412.8h-.4l-20.2-69.7H402l33.4 100.7h25.4L494 343.1h-25.7zM547.4 424c-13.1 0-25.7-9.7-26-24.7h74.4c0-36-14.7-58.5-48.4-58.5-32.6 0-51.6 22.7-51.6 52.8s18.9 52.7 51.6 52.7c27.5 0 42-13.1 49.6-24.7l-20.6-11.9c-2.4 3.3-9.9 14.3-29 14.3zm0-63.3c16.3 0 22.9 14.5 22.9 19.9h-49c2.6-10.9 12-20 26.1-19.9z"/><path fill="#EF4429" d="M229.8 327.6c-10.9-2.1-22-2.1-33 0 5.6 1.1 11.2 2.7 16.4 4.9-16.5 6.7-29.7 18.5-36.7 32.8 10.7-8.9 25.7-14.4 42.1-14.4 28.3 0 51.9 16.2 57.8 37.7-6 21.7-29.6 37.7-57.8 37.7-16.7 0-31.6-5.6-42.3-14.6 6.9 14.7 20.2 26.6 37 33.5-5.4 2.2-10.8 3.8-16.4 4.9 10.8 2.1 22 2.1 33 0 25.3-4.7 45.7-20.1 54.4-40.1 6-13.5 6-28.8 0-42.3-8.8-20-29.2-35.3-54.5-40.1z"/><g fill="#FFF"><path d="M311 470.9h3l8.2 18.7h-3.4l-1.8-4.5h-8.8l-1.8 4.5h-3.5l8.1-18.7zm4.7 11.3l-3.2-7.4-3.2 7.4h6.4zM334.6 480.4c-.1-5.2 4-9.5 9.1-9.6h.4c2.7-.1 5.4 1 7.3 2.9l-2.1 2.4c-1.3-1.5-3.3-2.3-5.2-2.3-3.4.1-6.2 2.9-6.1 6.3v.1c-.2 3.4 2.4 6.4 6 6.6h.1c2.1 0 4-1 5.4-2.4l2.1 2.1c-1.9 2.2-4.6 3.4-7.5 3.3-5.1.1-9.4-4-9.5-9.1v-.3zM356.1 471.1h8.3c1.9-.1 3.9.6 5.4 1.8 1 1.1 1.6 2.6 1.6 4 .1 2.7-1.8 5.1-4.4 5.6l5 7.1h-4l-4.6-6.4h-4.1v6.6H356l.1-18.7zm8 9.2c2.3 0 3.8-1.2 3.8-3 0-1.9-1.5-3-3.9-3h-4.7v6.2l4.8-.2zM376.3 471.1H390v2.9h-10.5v4.9h9.2v2.9h-9.2v5h10.6v2.9h-13.9l.1-18.6zM401.7 470.9h3l8.2 18.7h-3.4l-1.8-4.5h-8.8l-1.9 4.5h-3.4l8.1-18.7zm4.6 11.3l-3.2-7.4-3.2 7.4h6.4zM418.6 474.1h-5.8v-3h15.1v3H422v15.6h-3.3l-.1-15.6zM432.5 471.1h3.3v18.6h-3.3v-18.6zM440.1 471.1h3.6l5.6 14.2 5.6-14.2h3.5l-7.7 18.6h-2.9l-7.7-18.6zM462.6 471.1h13.7v2.9h-10.5v4.9h9.2v2.9h-9.2v5h10.6v2.9h-13.9l.1-18.6zM489.1 487l1.9-2.3c1.6 1.6 3.6 2.4 5.8 2.4 2.1 0 3.3-1 3.3-2.3 0-1.3-.7-2.1-4.1-2.8-3.9-1-6.2-2.1-6.2-5.5 0-3.2 2.7-5.4 6.3-5.4 2.4 0 4.9.7 6.7 2.3l-1.7 2.4c-1.5-1.2-3.2-1.8-5-1.9-1.9 0-3 1-3 2.2 0 1.5.9 2.1 4.4 2.9 3.9 1 6 2.3 6 5.5 0 3.4-2.7 5.5-6.6 5.5-2.9-.1-5.6-1.2-7.8-3zM512.6 474.1h-5.8v-3h15.1v3H516v15.6h-3.3l-.1-15.6zM526 481.8v-10.7h3.3v10.6c0 3.4 1.8 5.2 4.7 5.2s4.6-1.7 4.6-5.1v-10.7h3.3v10.5c0 5.5-3.2 8.3-7.9 8.3-4.7-.1-8-2.8-8-8.1zM547.3 471.1h6.9c5.8 0 9.9 4 9.9 9.2 0 5.2-4 9.2-9.9 9.2h-6.9v-18.4zm6.9 15.5c3.4.2 6.2-2.3 6.4-5.7v-.5c.1-3.4-2.4-6.2-5.8-6.3h-4.2v12.7l3.6-.2zM568.8 471.1h3.3v18.6h-3.3v-18.6zM576.7 480.4c.5-5.4 5.2-9.4 10.6-8.9 4.7.4 8.4 4.1 8.9 8.9-.5 5.4-5.2 9.4-10.6 8.9-4.7-.5-8.5-4.1-8.9-8.9zm16 0c.1-3.5-2.6-6.4-6.1-6.6h-.2c-3.4 0-6.2 2.8-6.2 6.3v.2c-.1 3.5 2.6 6.4 6.1 6.6h.2c3.4 0 6.2-2.8 6.2-6.3v-.2z"/></g></svg>