<svg xmlns="http://www.w3.org/2000/svg" xmlns:xlink="http://www.w3.org/1999/xlink" viewBox="0 0 184.2 59.5"><defs><path id="a" d="M0 0h184.2v59.5H0z"/></defs><clipPath id="b"><use xlink:href="#a" overflow="visible"/></clipPath><path clip-path="url(#b)" fill="#FFF" d="M7.7 28c0-4.5 2.6-8.8 6.7-8.8 3.7 0 5.4 2.6 5.4 6.2v19.3h7.7V28c0-4.5 2.6-8.8 6.9-8.8 3.6 0 5.2 2.6 5.2 6.2v19.3h7.7V22.4c0-6.9-4.2-10.2-11.2-10.2-4.3 0-7.5 1.7-9.8 4.8-1.6-3.5-5.6-4.8-9.4-4.8-4.1 0-6.9 1.5-9.2 3.9V13H0v31.9h7.7V28zM106.8 38.2c-1.1.1-2.3.4-3.4.4-3 0-3.5-1.4-3.5-3.9V18.5h6.9V13H100V1.7h-7.7V13h-4.7v5.5h4.7v19c0 4.8 2.1 7.7 8.4 7.7 2.4 0 4.3-.4 6.1-.8v-6.2z"/><path fill="#FFF" d="M110.9 0h7.7v7.8h-7.7zM110.9 13h7.7v31.9h-7.7zM137.1 35h-.1l-6.4-22h-8.1L133 44.9h8.1L151.6 13h-8.1z"/><defs><path id="c" d="M-1 0h184.2v59.5H-1z"/></defs><clipPath id="d"><use xlink:href="#c" overflow="visible"/></clipPath><path clip-path="url(#d)" fill="#FFF" d="M167.5 18.5c5.2 0 7.2 4.6 7.2 6.3h-15.5c.8-3.4 3.8-6.3 8.3-6.3m0 20.1c-4.2 0-8.1-3.1-8.2-7.8h23.6c0-11.4-4.7-18.5-15.3-18.5-10.3 0-16.3 7.2-16.3 16.7s6 16.7 16.3 16.7c8.7 0 13.3-4.1 15.7-7.8l-6.5-3.8c-.9 1-3.3 4.5-9.3 4.5"/><path clip-path="url(#d)" fill="#EF4429" d="M67 8.1c-1.7-.3-3.4-.5-5.2-.5-1.8 0-3.5.2-5.2.5 1.8.3 3.6.9 5.2 1.5-5.3 2.1-9.4 5.9-11.6 10.4 3.4-2.8 8.1-4.5 13.3-4.5 9 0 16.4 5.1 18.3 11.9-1.9 6.8-9.3 11.9-18.3 11.9-5.3 0-10-1.8-13.4-4.6 2.2 4.6 6.4 8.4 11.7 10.6-1.6.7-3.4 1.2-5.2 1.5 1.7.3 3.4.5 5.2.5 1.8 0 3.5-.2 5.2-.5 8-1.5 14.5-6.3 17.2-12.7.9-2.1 1.4-4.3 1.4-6.7 0-2.3-.5-4.6-1.4-6.7C81.4 14.4 75 9.6 67 8.1"/><g><defs><path id="e" d="M0 0h184.2v59.5H0z"/></defs></g><g><defs><path id="f" d="M0 0h184.2v59.5H0z"/></defs></g><g><defs><path id="g" d="M0 0h184.2v59.5H0z"/></defs></g></svg>