<svg xmlns="http://www.w3.org/2000/svg" xmlns:xlink="http://www.w3.org/1999/xlink" viewBox="0 0 143.4 84.7"><path fill="#B7BEC0" d="M1.5 79.2h1.3v2.5H1.5z"/><defs><path id="a" d="M0 0h143.4v84.7H0z"/></defs><clipPath id="b"><use xlink:href="#a" overflow="visible"/></clipPath><path clip-path="url(#b)" fill="none" stroke="#FFF" stroke-width="3" stroke-linejoin="round" stroke-miterlimit="10" d="M135.1 82.6c1.9 0 6.8-1.2 6.8-6.3V5.2c0-2.5-2.1-4-4-3.6L64.2 13c-1.9.4-2.5 2.1-2.5 4.1l.2 61.9"/><path clip-path="url(#b)" fill="none" stroke="#FFF" stroke-width="3" stroke-linecap="round" stroke-linejoin="round" stroke-miterlimit="10" d="M39.7 78.2c-.3.4-.7.6-1.1.6H27.9c-.5 0-.9-.2-1.1-.6H1.5V81h.3c2.5 1.3 6.6 2.2 11.2 2.2h115.5c4.7 0 8.8-.9 11.2-2.2h.1v-2.8H39.7z"/><path clip-path="url(#b)" fill="none" stroke="#FFF" stroke-width="3" stroke-miterlimit="10" d="M71.7 77.7v6M66.8 18.2v55.1h68.5V8.2z"/><path clip-path="url(#b)" fill="none" stroke="#FFF" stroke-width="3" stroke-linejoin="round" d="M110.5 12.7L87.2 40.9M124.3 9.6L80.9 62.3"/></svg>