<svg xmlns="http://www.w3.org/2000/svg" xmlns:xlink="http://www.w3.org/1999/xlink" viewBox="0 0 78.1 102.4"><defs><path id="a" d="M0 0h78.1v102.4H0z"/></defs><clipPath id="b"><use xlink:href="#a" overflow="visible"/></clipPath><path clip-path="url(#b)" fill="none" stroke="#FFF" stroke-width="3" stroke-miterlimit="10" d="M23.9 25.7c-1-3.6-1.6-7.3-1.6-11.2 0-4.2.7-8.3 1.8-12.1"/><path clip-path="url(#b)" fill="none" stroke="#FFF" stroke-width="3" stroke-miterlimit="10" d="M42.4 65.4V49.9c12.2-7.2 20.4-20.6 20.4-36 0-4.3-.7-8.5-1.8-12.4H17c-1.2 3.9-1.8 8.1-1.8 12.4 0 15.4 8.2 28.9 20.5 36v15.5"/><path clip-path="url(#b)" fill="none" stroke="#FFF" stroke-width="3" stroke-linecap="round" stroke-miterlimit="10" d="M62.2 6.1c.5 2.5.7 5.1.7 7.8 0 10.3-3.7 19.6-9.7 26.9 13.6-4.7 23.2-18.4 23.3-34.6H62.2zM15.2 13.9c0-2.7.2-5.3.7-7.8H1.5c.1 16.2 9.7 30 23.4 34.6-6.1-7.2-9.7-16.6-9.7-26.8zM21.3 78.9h35.5v11H21.3zM14 95.3h50.1v5.5H14zM57.5 73.5v-2c0-1.5-1-2.7-2.3-2.7H22.8c-1.2 0-2.3 1.2-2.3 2.7v2h37z"/><path clip-path="url(#b)" fill="none" stroke="#FFF" stroke-width="3" stroke-linecap="round" stroke-miterlimit="10" d="M28.4 64.4h21.2v4.4H28.4zM15.8 73.5h46.4v21.8H15.8z"/></svg>