<svg xmlns="http://www.w3.org/2000/svg" xmlns:xlink="http://www.w3.org/1999/xlink" viewBox="0 99 612 592"><path fill="none" stroke="#FFF" stroke-width="12" stroke-miterlimit="11" d="M292.3 455.5h27.3v208.2h-27.3V455.5z"/><defs><path id="a" d="M0 103.8h612v584.3H0z"/></defs><clipPath id="b"><use xlink:href="#a" overflow="visible"/></clipPath><path clip-path="url(#b)" fill="none" stroke="#FFF" stroke-width="12" stroke-miterlimit="11" d="M233 663.3h146v23H233v-23zM1.8 455.5h608.4V152.4H1.8v303.1zm580.4-30.6H29.8V191.2h552.3l.1 233.7z"/><g><defs><path id="c" d="M0 103.8h612v584.3H0z"/></defs><clipPath id="d"><use xlink:href="#c" overflow="visible"/></clipPath><path clip-path="url(#d)" fill="none" stroke="#FFF" stroke-width="12" stroke-miterlimit="11" d="M185.2 121.8v-12.2l-4.3-4h-22.7l-4.3 4v6.1l-45.3 28.8h-9.3v8.6h59v-8.6h-4l12.6-22.7h18.3zm-40.3 22.7H123l34.5-21.9-12.6 21.9zM534 123.3v-12.6l-4.3-4H507l-4.3 4v6.1l-43.5 27.3h-9v8.6h7.2l.7 1.1 1.8-1.1h49.3v-8.6h-5.4l11.9-21.2H534v.4zm-39.2 21.2h-20.9l32.4-20.5-11.5 20.5z"/></g></svg>