<svg xmlns="http://www.w3.org/2000/svg" xmlns:xlink="http://www.w3.org/1999/xlink" viewBox="0 0 104 97.9"><path fill="none" stroke="#FFF" stroke-width="3" stroke-miterlimit="10" d="M58.9 22v-8.8"/><defs><path id="a" d="M0 0h104v97.9H0z"/></defs><clipPath id="b"><use xlink:href="#a" overflow="visible"/></clipPath><path clip-path="url(#b)" fill="none" stroke="#FFF" stroke-width="3" stroke-miterlimit="10" d="M71.9 2.8h12.5l-2.5 5.7 2.5 5.6H71.9"/><path clip-path="url(#b)" fill="none" stroke="#FFF" stroke-width="3" stroke-miterlimit="10" d="M58.1 12.8V1.5h14.4v11.3zM37.6 57.9L59 18.5l21.2 39 21.2 38.9H59M40.8 96.4H2.5l13.6-26.1 13.6-26.1 13.7 26.1 6.3 12.1"/><path clip-path="url(#b)" fill="none" stroke="#FFF" stroke-width="3" stroke-miterlimit="10" d="M62.6 62.7l10.9 16.9 10.8 16.8H40.9l10.8-16.8zM74 46.1L59 18.5 45 44.1c3.7-1.8 7.3-3.6 7.3-3.6l5.5 7.5 5.5-7L74 46.1z"/></svg>