<svg xmlns="http://www.w3.org/2000/svg" xmlns:xlink="http://www.w3.org/1999/xlink" viewBox="0 0 22 30"><defs><path id="a" d="M0 0h22v30H0z"/></defs><clipPath id="b"><use xlink:href="#a" overflow="visible"/></clipPath><path clip-path="url(#b)" fill="#FFF" d="M0 10.1v8.8c0 8.5 7.8 11 9.3 11 1.5 0 7.4.1 8.5.1 1.1 0 4.1-.3 4.1-3.3s-2.2-4.2-3.6-4.2h-5.8c-4.2 0-4.8-1.8-4.8-3.5 0-.8.1-2.1.1-3.7h9.8c1.5 0 4.3-.6 4.3-3.2s-1.3-4.4-3-4.4h-11c0-3.8-.3-7.6-4-7.6C2.3 0 1.1.6.5 2.2-.2 4.3 0 6.7 0 8.8v1.3"/></svg>