<svg xmlns="http://www.w3.org/2000/svg" xmlns:xlink="http://www.w3.org/1999/xlink" viewBox="0 0 30 30"><defs><path id="a" d="M0 0h30v30H0z"/></defs><clipPath id="b"><use xlink:href="#a" overflow="visible"/></clipPath><path clip-path="url(#b)" fill="#FFF" d="M24.2 0H5.8C2.6 0 0 2.6 0 5.8v18.4C0 27.4 2.6 30 5.8 30h18.4c3.2 0 5.8-2.6 5.8-5.8V5.8C30 2.6 27.4 0 24.2 0m1.7 3.5h.7V8.6h-5.1V3.5h4.4zm-15.2 8.4c1-1.3 2.5-2.2 4.3-2.2s3.3.9 4.3 2.2c.6.9 1 1.9 1 3.1 0 2.9-2.4 5.3-5.3 5.3S9.7 17.9 9.7 15c0-1.1.4-2.2 1-3.1m16.4 12.3c0 1.6-1.3 2.9-2.9 2.9H5.8c-1.6 0-2.9-1.3-2.9-2.9V11.9h4.5c-.4 1-.6 2-.6 3.1 0 4.5 3.7 8.2 8.2 8.2 4.5 0 8.2-3.7 8.2-8.2 0-1.1-.2-2.1-.6-3.1h4.5v12.3z"/></svg>